<?xml version="1.0" encoding="UTF-8"?>
<svg width="2125px" height="500px" viewBox="0 0 2125 500" version="1.1" xmlns="http://www.w3.org/2000/svg" xmlns:xlink="http://www.w3.org/1999/xlink">
    <title>Grid Copy 3</title>
    <defs>
        <path d="M0,0 L2125,0 L2125,500 L0,500 L0,0 Z" id="path-1"></path>
    </defs>
    <g id="Grid-Copy-3" stroke="none" fill="none" xlink:href="#path-1">
        <path d="M500,0 L500,500 L0,500 L0,0 L500,0 Z M400,100 L100,100 L100,400 L400,400 L400,100 Z" id="Rectangle" fill="#000000" fill-rule="nonzero"></path>
        <g id="LOGO" stroke-width="1" fill-rule="evenodd" transform="translate(674.8, 20.2)" fill="#000000">
            <polygon id="Path" fill-rule="nonzero" points="241.66519 451.371191 241.66519 371.904432 90.9424269 371.904432 90.9424269 7.62880886 0 7.62880886 0 451.371191"></polygon>
            <path d="M440.720992,459 C546.926484,459 616.882197,395.426593 616.882197,229.5 C616.882197,63.5734072 546.926484,0 440.720992,0 C334.5155,0 264.559787,63.5734072 264.559787,229.5 C264.559787,395.426593 334.5155,459 440.720992,459 Z M440.720992,378.897507 C390.480071,378.897507 361.225864,347.746537 361.225864,287.351801 L361.225864,171.648199 C361.225864,111.253463 390.480071,80.1024931 440.720992,80.1024931 C490.961913,80.1024931 520.21612,111.253463 520.21612,171.648199 L520.21612,287.351801 C520.21612,347.746537 490.961913,378.897507 440.720992,378.897507 Z" id="Shape" fill-rule="nonzero"></path>
            <path d="M941.222321,451.371191 L1017.53764,451.371191 L1017.53764,206.613573 L857.275465,206.613573 L857.275465,282.901662 L930.410983,282.901662 L930.410983,308.966759 C930.410983,354.739612 896.705049,378.261773 850.915855,378.261773 C800.674934,378.261773 769.512843,347.746537 769.512843,287.351801 L769.512843,171.648199 C769.512843,111.253463 800.674934,80.1024931 848.372011,80.1024931 C896.705049,80.1024931 923.415412,105.531856 935.498671,144.947368 L1009.90611,102.353186 C980.651904,34.965374 927.867139,0 849.007972,0 C742.80248,0 672.846767,63.5734072 672.846767,231.407202 C672.846767,399.240997 747.254207,459 831.201063,459 C889.709477,459 925.323295,426.577562 931.046944,381.440443 L941.222321,381.440443 L941.222321,451.371191 Z" id="Path" fill-rule="nonzero"></path>
            <path d="M1259.8388,459 C1366.04429,459 1436,395.426593 1436,229.5 C1436,63.5734072 1366.04429,0 1259.8388,0 C1153.6333,0 1083.67759,63.5734072 1083.67759,229.5 C1083.67759,395.426593 1153.6333,459 1259.8388,459 Z M1259.8388,378.897507 C1209.59787,378.897507 1180.34367,347.746537 1180.34367,287.351801 L1180.34367,171.648199 C1180.34367,111.253463 1209.59787,80.1024931 1259.8388,80.1024931 C1310.07972,80.1024931 1339.33392,111.253463 1339.33392,171.648199 L1339.33392,287.351801 C1339.33392,347.746537 1310.07972,378.897507 1259.8388,378.897507 Z" id="Shape" fill-rule="nonzero"></path>
        </g>
    </g>
</svg>